Following the death of his father, Britt Reid, heir to his father's large company, teams up with his late dad's assistant Kato to become a masked crime fighting team.
 


Director: 
Michel Gondry

 Writers: 
Seth Rogen, Evan Goldberg, and 1 more credit » 

Stars:
 Seth Rogen, Jay Chou and Christoph Waltz 

Media info:

General
Complete name                    : E:\torrent2\The Green Hornet (2011) .blu-ray rip.Mkv.1080p.ACB-Team\The Green Hornet (2011) .blu-ray rip.Mkv.1080p.ACB-Team.mkv
Format                           : Matroska
File size                        : 11.6 GiB
Duration                         : 1h 58mn
Overall bit rate                 : 13.9 Mbps
Movie name                       : movie
Encoded date                     : UTC 2011-04-12 13:36:29
Writing application              : mkvmerge v3.2.0 ('Beginnings') built on Feb 12 2010 16:46:17
Writing library                  : libebml v0.7.9 + libmatroska v0.8.1

Video
ID                               : 1
Format                           : AVC
Format/Info                      : Advanced Video Codec
Format profile                   : High@L4.1
Format settings, CABAC           : Yes
Format settings, ReFrames        : 3 frames
Muxing mode                      : Container profile=Unknown@0.0
Codec ID                         : V_MPEG4/ISO/AVC
Duration                         : 1h 58mn
Bit rate mode                    : Variable
Bit rate                         : 12.5 Mbps
Maximum bit rate                 : 35.0 Mbps
Width                            : 1 920 pixels
Height                           : 1 080 pixels
Display aspect ratio             : 16:9
Frame rate                       : 23.976 fps
Color space                      : YUV
Chroma subsampling               : 4:2:0
Bit depth                        : 8 bits
Scan type                        : Progressive
Bits/(Pixel*Frame)               : 0.252
Stream size                      : 10.1 GiB (87%)
Writing library                  : x264 core 114 r1900 60ef1f8
Encoding settings                : cabac=1 / ref=1 / deblock=1:0:0 / analyse=0x3:0x3 / me=dia / subme=1 / psy=1 / psy_rd=0.00:0.00 / mixed_ref=0 / me_range=16 / chroma_me=1 / trellis=0 / 8x8dct=1 / cqm=0 / deadzone=21,11 / fast_pskip=1 / chroma_qp_offset=0 / threads=3 / sliced_threads=0 / slices=4 / nr=0 / decimate=1 / interlaced=0 / constrained_intra=0 / bframes=3 / b_pyramid=1 / b_adapt=1 / b_bias=0 / direct=1 / weightb=1 / open_gop=0 / weightp=1 / keyint=24 / keyint_min=1 / scenecut=40 / intra_refresh=0 / rc_lookahead=0 / rc=abr / mbtree=0 / bitrate=12530 / ratetol=1.0 / qcomp=0.60 / qpmin=0 / qpmax=69 / qpstep=4 / vbv_maxrate=35000 / vbv_bufsize=30000 / nal_hrd=vbr / ip_ratio=1.10 / pb_ratio=1.10 / aq=1:1.00

Audio
ID                               : 2
Format                           : DTS
Format/Info                      : Digital Theater Systems
Codec ID                         : A_DTS
Duration                         : 1h 58mn
Bit rate mode                    : Constant
Bit rate                         : 1 510 Kbps
Channel(s)                       : 6 channels
Channel positions                : Front: L C R, Side: L R, LFE
Sampling rate                    : 48.0 KHz
Bit depth                        : 24 bits
Stream size                      : 1.25 GiB (11%)
Language                         : English

Text #1
ID                               : 3
Format                           : VobSub
Muxing mode                      : zlib
Codec ID                         : S_VOBSUB
Codec ID/Info                    : The same subtitle format used on DVDs
Language                         : English

Text #2
ID                               : 4
Format                           : UTF-8
Codec ID                         : S_TEXT/UTF8
Codec ID/Info                    : UTF-8 Plain Text
Language                         : Dutch

Menu
00:00:00.000                     : en:00:00:00.000
00:05:00.000                     : en:00:05:00.000
00:10:00.000                     : en:00:10:00.000
00:15:00.000                     : en:00:15:00.000
00:20:00.000                     : en:00:20:00.000
00:25:00.000                     : en:00:25:00.000
00:30:00.000                     : en:00:30:00.000
00:35:00.000                     : en:00:35:00.000
00:40:00.000                     : en:00:40:00.000
00:45:00.000                     : en:00:45:00.000
00:50:00.000                     : en:00:50:00.000
00:55:00.000                     : en:00:55:00.000
01:00:00.000                     : en:01:00:00.000
01:05:00.000                     : en:01:05:00.000
01:10:00.000                     : en:01:10:00.000
01:15:00.000                     : en:01:15:00.000
01:20:00.000                     : en:01:20:00.000
01:25:00.000                     : en:01:25:00.000
01:30:00.000                     : en:01:30:00.000
01:35:00.000                     : en:01:35:00.000
01:40:00.000                     : en:01:40:00.000
01:45:00.000                     : en:01:45:00.000
01:50:00.000                     : en:01:50:00.000
01:55:00.000                     : en:01:55:00.000

